{"title":"The.Chaos.Experiment.2009.DVDRIP.XviD-ZEKTORM","uid":4973357,"size":735257317,"categoryP":"video","categoryS":"movies","magnet":"?xt=urn:btih:85d5c4958db99a036c44f9c07ac23b53bfff9a50&amp;dn=The.Chaos.Experiment.2009.DVDRIP.XviD-ZEKTORM&amp;tr=udp%3A%2F%2Ftracker.openbittorrent.com%3A80&amp;tr=udp%3A%2F%2Fopen.demonii.com%3A1337&amp;tr=udp%3A%2F%2Ftracker.coppersurfer.tk%3A6969&amp;tr=udp%3A%2F%2Fexodus.desync.com%3A6969","seeders":1,"leechers":1,"uploader":"blowley","files":3,"time":1245876772,"description":"Title                            : The Steam Experiment\nAlso Known As                    : The Chaos Experiment\nYear                             : 2009\nGenre                            : Drama | Thriller\niMDB URL                         : http://www.imdb.com/title/tt1289437/\n\nComplete name                    : TCE-ZEKTORM.avi\nFormat                           : AVI\nFile size                        : 701 MiB\nDuration                         : 1h 30mn\nOverall bit rate                 : 1083 Kbps\nSource                           : DVD NTSC\n\nVideo\nFormat                           : MPEG-4 Visual\nFormat profile                   : Streaming Video@L1\nCodec ID                         : XVID\nCodec ID/Hint                    : XviD\nDuration                         : 1h 30mn\nBit rate                         : 959 Kbps\nWidth                            : 720 pixels\nHeight                           : 320 pixels\nDisplay aspect ratio             : 2.25\nFrame rate                       : 23.976 fps\nResolution                       : 24 bits\nColorimetry                      : 4:2:0\nScan type                        : Progressive\nBits/(Pixel*Frame)               : 0.174\nStream size                      : 621 MiB (89%)\nWriting library                  : XviD\n\nAudio\nFormat                           : MPEG Audio\nFormat version                   : Version 1\nFormat profile                   : Layer 3\nCodec ID                         : 55\nCodec ID/Hint                    : MP3\nDuration                         : 1h 30mn\nBit rate mode                    : Variable\nBit rate                         : 111 Kbps\nMinimum bit rate                 : 128 Kbps\nChannel(s)                       : 2 channels\nSampling rate                    : 48.0 KHz\nResolution                       : 16 bits\nStream size                      : 71.9 MiB (10%)\nWriting library                  : LAME3.98r\nEncoding settings                : ABR\n","torrent":{"xt":"urn:btih:85d5c4958db99a036c44f9c07ac23b53bfff9a50","amp;dn":"The.Chaos.Experiment.2009.DVDRIP.XviD-ZEKTORM","amp;tr":["udp%3A%2F%2Ftracker.openbittorrent.com%3A80","udp%3A%2F%2Fopen.demonii.com%3A1337","udp%3A%2F%2Ftracker.coppersurfer.tk%3A6969","udp%3A%2F%2Fexodus.desync.com%3A6969"],"infoHash":"85d5c4958db99a036c44f9c07ac23b53bfff9a50","infoHashBuffer":{"type":"Buffer","data":[133,213,196,149,141,185,154,3,108,68,249,192,122,194,59,83,191,255,154,80]},"announce":[],"urlList":[]}}